<svg id="Capa_1" data-name="Capa 1" xmlns="http://www.w3.org/2000/svg" viewBox="0 0 154 154"><defs><style>.cls-1{fill:#91303a;}.cls-2,.cls-3{fill:#fff;}.cls-3,.cls-4{stroke:#fff;stroke-miterlimit:10;}.cls-4{fill:none;stroke-width:2px;}</style></defs><title>logoCafeteriasBA</title><circle class="cls-1" cx="77" cy="77" r="77"/><polygon id="star" class="cls-2" points="76.97 97.09 78.75 99.78 81.86 100.64 79.85 103.17 79.99 106.39 76.97 105.26 73.95 106.39 74.09 103.17 72.09 100.64 75.19 99.78 76.97 97.09"/><g id="lines"><line class="cls-3" x1="88.48" y1="102.57" x2="128.94" y2="102.57"/><line class="cls-3" x1="65.46" y1="102.57" x2="24.99" y2="102.57"/></g><path class="cls-2" d="M374.79,935.33a6.38,6.38,0,0,1-6.59,6.39h-4.29a2.91,2.91,0,0,0,1.21-2.18v-15.2a2.91,2.91,0,0,0-1.21-2.18h4.24c2.45,0,5.5.75,5.39,4a4.27,4.27,0,0,1-2.88,3.51,3.76,3.76,0,0,1,.75.29,4.2,4.2,0,0,0,2.54-3.37,3.38,3.38,0,0,0-.86-2.57,3.35,3.35,0,0,1,1.35,3,4.22,4.22,0,0,1-2.41,3.29A6.79,6.79,0,0,1,374.79,935.33Zm-5.7,7.23H364.8a3.77,3.77,0,0,0,.46-.4h3.34a6.39,6.39,0,0,0,6.59-6.4,6.77,6.77,0,0,0-2-4.4,6.74,6.74,0,0,1,2.51,4.8A6.38,6.38,0,0,1,369.09,942.56ZM368,924v4.94a1.89,1.89,0,0,0,.41,0v-4.48a2.22,2.22,0,0,1,1.62.38A2.08,2.08,0,0,0,368,924Zm.41,7.23a2.77,2.77,0,0,1,1.83.65,2.8,2.8,0,0,0-2.24-1.08v9.1c.14,0,.27,0,.41,0Zm2.05-5.15a1.08,1.08,0,0,0-1.57-1.22v3.94A2.53,2.53,0,0,0,370.44,926.07Zm-.08,6a2.68,2.68,0,0,0-1.49-.4v8c1.52-.57,2.38-2.56,2.38-4.7A5,5,0,0,0,370.36,932.06Z" transform="translate(-298.44 -807.84)"/><path class="cls-2" d="M382.35,941.72a2,2,0,0,0,.91-2.18l-.83-3.59h-2.57l-1.24,4.75a1.64,1.64,0,0,0,.11,1h-.24a1.8,1.8,0,0,1-.36-1.43l1.25-4.75h2.94l-.08-.43H379l-1.24,4.75a2.06,2.06,0,0,0,.7,1.86h-4.18a3.33,3.33,0,0,0,1.37-1.89l4.81-17.67H382l4.56,17.32a4.5,4.5,0,0,0,1.3,2.14,5.2,5.2,0,0,1-.89-1.7L382.54,923h.37l4.56,17.3a4.86,4.86,0,0,0,.68,1.4Zm-3.38.44c.11.13.22.27.35.4h-4.18l.51-.4Zm.95-8.86,1-3.88-.24-1.08-1.25,5Zm1.27-2.64-.68,2.64h1.3Zm2.05,11.9a3.77,3.77,0,0,0,.46-.4h4.77a4.4,4.4,0,0,0,.46.4Z" transform="translate(-298.44 -807.84)"/><circle class="cls-4" cx="77.27" cy="76.71" r="72.43"/><path class="cls-2" d="M332.13,897.11c-1.35-1.35-1.68-.08-3.54-.08-4.18,0-5.88-6.42-5.88-10.12s1.7-10.15,5.88-10.15c1.22,0,1.78.54,2.4.54a1.65,1.65,0,0,0,1.14-.62v8a17.58,17.58,0,0,0-1.87-5,1.83,1.83,0,0,0-.64-.13c-1.79,0-2.6,4.37-2.6,8.2,0,2.76.41,5.81,1.33,7.32a1.23,1.23,0,0,0,.35,0c1.56,0,2.4-2.29,3.43-6Zm-5.59-9.77c0-3.83.81-8.2,2.59-8.2a1.6,1.6,0,0,1,1,.35,1.74,1.74,0,0,0-1.4-.79c-1.78,0-2.59,4.38-2.59,8.21,0,3.29.59,7,1.91,8C327,893.52,326.54,890.26,326.54,887.34Zm5.8,10c.06,0,0,.08-.08,0-.81-.32-1.29.49-2.75.49a4.11,4.11,0,0,1-2.92-1.27,4,4,0,0,0,2.43.83C330.75,897.46,331.15,896.33,332.34,897.36Zm.19-19.41a4.16,4.16,0,0,0,.51-.41v8l-.51-1.7Zm0,19.59v-5.88L333,890v8A3,3,0,0,0,332.53,897.54Z" transform="translate(-298.44 -807.84)"/><path class="cls-2" d="M341.15,896.68a2,2,0,0,0,.91-2.19l-.83-3.59h-2.57l-1.24,4.76a1.64,1.64,0,0,0,.11,1h-.25a1.84,1.84,0,0,1-.35-1.43l1.25-4.75h2.94l-.08-.43h-3.27l-1.24,4.75a2.07,2.07,0,0,0,.7,1.86h-4.18a3.41,3.41,0,0,0,1.37-1.89l4.81-17.68h1.59l4.56,17.33a4.48,4.48,0,0,0,1.3,2.13,5,5,0,0,1-.89-1.7L341.33,878h.38l4.56,17.31a4.71,4.71,0,0,0,.68,1.4Zm-3.38.43c.11.14.22.27.35.41h-4.18l.51-.41Zm1-8.85,1-3.89-.25-1.08-1.24,5Zm1.26-2.65-.67,2.65h1.29ZM342,897.52a3.06,3.06,0,0,0,.45-.41h4.78a3.55,3.55,0,0,0,.46.41Z" transform="translate(-298.44 -807.84)"/><path class="cls-2" d="M355,881.7a7.4,7.4,0,0,0-.67-1,5.17,5.17,0,0,0-3.13-.81v4.16h.24a2.27,2.27,0,0,0,2.32-1.89v5.5a5.44,5.44,0,0,0-.32-.81,2.8,2.8,0,0,0-1.11-.24h-1.13v8.69a2.48,2.48,0,0,0,.43,1.35h-5.4a2.92,2.92,0,0,0,1.21-2.19V879.3a2.92,2.92,0,0,0-1.21-2.19H355Zm-3,15.41.46.41h-5.29a3.8,3.8,0,0,0,.46-.41Zm-1.24-17.62a4.89,4.89,0,0,1,3.54,1.13,4.74,4.74,0,0,0-3.94-1.57v5h.4Zm0,15.44v-8.7h1.13a2.3,2.3,0,0,1,1.46.46,2.24,2.24,0,0,0-1.86-.89h-1.13v8.69a2.87,2.87,0,0,0,1.05,2.08A2.7,2.7,0,0,1,350.73,894.93Zm3.46-10.83a2.64,2.64,0,0,0,.48-1.05v5.48a2.64,2.64,0,0,0-.48-1Zm1.72-1.54c-.16-.29-.32-.54-.48-.78V878h.48Z" transform="translate(-298.44 -807.84)"/><path class="cls-2" d="M364.93,896.68h-8.77a2.92,2.92,0,0,0,1.21-2.19V879.3a2.92,2.92,0,0,0-1.21-2.19h8.77v4.59a6.53,6.53,0,0,0-.65-1,5.17,5.17,0,0,0-3.13-.81v4.16h.22a2.27,2.27,0,0,0,2.32-1.89v5.5a3,3,0,0,0-.3-.81,2.83,2.83,0,0,0-1.1-.24h-1.14v8c1.7-.16,3.05-1.48,3.78-3.83Zm.92.84h-8.77l.45-.41h7.83v-4.18c.16-.38.33-.78.49-1.24Zm-5.18-13.44v-4.59a4.79,4.79,0,0,1,3.51,1.13,4.72,4.72,0,0,0-3.95-1.57v5Zm0,2.15h1.13a2.36,2.36,0,0,1,1.46.46,2.26,2.26,0,0,0-1.89-.89h-1.14v8.88a2.17,2.17,0,0,0,.44,0Zm3.45-2.13a2.66,2.66,0,0,0,.49-1.05v5.48a2.66,2.66,0,0,0-.49-1Zm1.24-6.13h.49v4.59c-.16-.29-.33-.54-.49-.78Z" transform="translate(-298.44 -807.84)"/><path class="cls-2" d="M376.22,881.7c-.81-1.59-1.3-1.78-2.59-1.78v15.44a2.76,2.76,0,0,0,.43,1.32h-5.4a2.92,2.92,0,0,0,1.21-2.19V880c-1,.21-1.81.89-2.59,2.56v-1.35a3.12,3.12,0,0,1,2.59-1.7v-.46c-1.48,0-2.51.52-3.48,2.65v-4.59h9.83Zm-1.84,15.41.46.43h-5.29a3.19,3.19,0,0,0,.46-.43Zm-1.24-2.18V879.49a3.06,3.06,0,0,1,2.16.7,3,3,0,0,0-2.57-1.14v15.44a3,3,0,0,0,1.06,2.08A2.91,2.91,0,0,1,373.14,894.93Zm4-12.37a9.37,9.37,0,0,0-.49-.91V878h.49Z" transform="translate(-298.44 -807.84)"/><path class="cls-2" d="M386.1,896.68h-8.77a3,3,0,0,0,1.21-2.19V879.3a3,3,0,0,0-1.21-2.19h8.77v4.59a7.41,7.41,0,0,0-.65-1,5.17,5.17,0,0,0-3.13-.81v4.16h.22a2.27,2.27,0,0,0,2.32-1.89v5.5a3.33,3.33,0,0,0-.3-.81,2.88,2.88,0,0,0-1.11-.24h-1.13v8c1.7-.16,3.05-1.48,3.78-3.83Zm.92.84h-8.78l.46-.41h7.83v-4.18c.16-.38.33-.78.49-1.24Zm-5.19-13.44v-4.59a4.78,4.78,0,0,1,3.51,1.13,4.7,4.7,0,0,0-3.94-1.57v5Zm0,2.15H383a2.36,2.36,0,0,1,1.46.46,2.26,2.26,0,0,0-1.89-.89H381.4v8.88a2.12,2.12,0,0,0,.43,0Zm3.46-2.13a2.8,2.8,0,0,0,.49-1.05v5.48a2.8,2.8,0,0,0-.49-1Zm1.24-6.13H387v4.59c-.16-.29-.33-.54-.49-.78Z" transform="translate(-298.44 -807.84)"/><path class="cls-2" d="M395.09,890.66a4.34,4.34,0,0,1,.51.54c.92,1,.92,3.83,2.49,5.24a4.5,4.5,0,0,1-.79-1.54c-.43-1.67-.89-3-1.64-3.65,1.08.73,1.56,2,2.13,4.08a4,4,0,0,0,.65,1.35h-3.78c-.38,0-.73-.62-.78-1.84,0-.78-.33-3-1.25-3.21-.05,0-.1,0-.18,0v3.7a2.76,2.76,0,0,0,.43,1.32h-5.37a3,3,0,0,0,1.18-2.19V879.3a3,3,0,0,0-1.18-2.19h3.21c2.32,0,7,.92,7,6.45a6.83,6.83,0,0,1-3.76,6.37,6,6,0,0,1,.6.33,6.81,6.81,0,0,0,3.56-6.27,6.68,6.68,0,0,0-1.67-4.58,6.43,6.43,0,0,1,2.16,5A6.94,6.94,0,0,1,395.09,890.66Zm-1.43,6.88H388.4a3.82,3.82,0,0,0,.46-.43h4.34ZM392,879.38h.11a1.57,1.57,0,0,1,1,.4,1.9,1.9,0,0,0-1.43-.83h-.11v10.23a1,1,0,0,0,.41-.06Zm0,15.55v-3.7c.08,0,.13,0,.19,0a2.12,2.12,0,0,1,.67.38,2.33,2.33,0,0,0-1.08-.81c-.05,0-.11,0-.19,0v3.69a3,3,0,0,0,1.06,2.08A2.7,2.7,0,0,1,392,894.93Zm.49-6c1.4-.81,2-2.67,2-4.56s-.65-4.56-1.92-4.56h-.1Zm6.36,8.18a3.84,3.84,0,0,0,.52.43h-3.78c-.19,0-.35-.16-.49-.43Z" transform="translate(-298.44 -807.84)"/><path class="cls-2" d="M403.51,894.93v-15.2a2.78,2.78,0,0,1,.76-1.76h.94a3,3,0,0,0-1.21,2.19v15.17a2.56,2.56,0,0,0,.43,1.35H399a2.94,2.94,0,0,0,1.22-2.19V879.3a2.94,2.94,0,0,0-1.22-2.19h5.29a3,3,0,0,0-1.21,2.19v15.19a2.87,2.87,0,0,0,1.05,2.08A2.77,2.77,0,0,1,403.51,894.93Zm-3.59,2.59a3.17,3.17,0,0,0,.46-.41h4.38l.45.41Zm.92-21.35,1.81-2.38h2.16l-2.54,2.38Zm1.22.43h.62l2.08-2h.94L403.16,877h-1.43Z" transform="translate(-298.44 -807.84)"/><path class="cls-2" d="M413.4,896.68a2,2,0,0,0,.91-2.19l-.83-3.59h-2.57l-1.24,4.76a1.64,1.64,0,0,0,.11,1h-.24a1.77,1.77,0,0,1-.35-1.43l1.24-4.75h2.94l-.08-.43H410l-1.24,4.75a2.07,2.07,0,0,0,.7,1.86H405.3a3.36,3.36,0,0,0,1.37-1.89l4.81-17.68h1.59l4.56,17.33a4.48,4.48,0,0,0,1.3,2.13,5,5,0,0,1-.89-1.7L413.58,878H414l4.57,17.31a4.62,4.62,0,0,0,.67,1.4Zm-3.38.43c.11.14.22.27.35.41h-4.18l.51-.41Zm1-8.85,1-3.89-.24-1.08-1.25,5Zm1.26-2.65-.67,2.65h1.3Zm2.06,11.91a3.8,3.8,0,0,0,.46-.41h4.77a3.55,3.55,0,0,0,.46.41Z" transform="translate(-298.44 -807.84)"/><path class="cls-2" d="M424,897a21,21,0,0,1-3.19-.54,1.31,1.31,0,0,0-1.08.62V885.8c.41,3.7,1.7,7.7,3.16,8.91a14.77,14.77,0,0,1-2.24-5.59v-2.45c.35,3.18,1.35,6.64,2.59,8.28a1.24,1.24,0,0,0,.54.14c1.14,0,1.62-.87,1.62-2.65,0-5.61-5.24-7-5.61-11.2a4.14,4.14,0,0,1,4.34-4.45c1.3,0,1.92.59,2.57.59a1.54,1.54,0,0,0,1.21-.7v7.21a9.73,9.73,0,0,0-2.08-4,2.08,2.08,0,0,0-1.18-.45c-1.19,0-1.27,1.18-1,2.21.41,1.4,1.87,3,2.76,4.1,1.51,1.95,3.13,4,3.13,7,0,4.29-2.4,5.21-4.64,5.21a21,21,0,0,1-3.19-.54,1.27,1.27,0,0,0-1.08.62v-.89a.92.92,0,0,1,.59-.17,21.25,21.25,0,0,0,3.19.54c2.24,0,4.64-.91,4.64-5.21,0-2.94-1.62-5-3.13-7-.89-1.13-2.35-2.7-2.75-4.1-.3-1-.22-2.22,1-2.22a2.68,2.68,0,0,1,1.62.81,3.1,3.1,0,0,0-2.05-1.24c-1.19,0-1.27,1.19-1,2.21.4,1.41,1.86,3,2.75,4.11,1.51,1.94,3.13,4,3.13,7C428.65,896.11,426.25,897,424,897Zm4.34-19a6.19,6.19,0,0,0,.49-.46v7.21a6.23,6.23,0,0,0-.49-1.48Z" transform="translate(-298.44 -807.84)"/><path class="cls-2" d="M368.09,851.16a12.73,12.73,0,0,1-2.82-.58s0-.08,0-.08a17.87,17.87,0,0,0,3.07.37,16.74,16.74,0,0,1,2.75.11.11.11,0,0,1,0,.21A9.71,9.71,0,0,1,368.09,851.16Z" transform="translate(-298.44 -807.84)"/><path class="cls-2" d="M365.85,852.67h0a6.09,6.09,0,0,1,4-.61c.1,0,.07.18,0,.18A7.68,7.68,0,0,0,365.85,852.67Z" transform="translate(-298.44 -807.84)"/><path class="cls-2" d="M369.57,853.65c.08,0,.08.18,0,.18a11.71,11.71,0,0,1-3.18-.11s0,0,0,0A13.55,13.55,0,0,1,369.57,853.65Z" transform="translate(-298.44 -807.84)"/><path class="cls-2" d="M366.39,854.77a15,15,0,0,1,4.23-.07c.07,0,.07.18,0,.18a16.64,16.64,0,0,1-4.23-.08S366.36,854.77,366.39,854.77Z" transform="translate(-298.44 -807.84)"/><path class="cls-2" d="M366.9,856.79c.87,0,1.77-.07,2.64,0a.09.09,0,0,1,0,.18,21.14,21.14,0,0,1-2.64,0C366.83,857,366.83,856.79,366.9,856.79Z" transform="translate(-298.44 -807.84)"/><path class="cls-2" d="M368,857.84c.57,0,1.12,0,1.7,0a4.31,4.31,0,0,1,1.48,0,.1.1,0,0,1,0,.18,5.26,5.26,0,0,1-1.48,0c-.58,0-1.13,0-1.7,0A.09.09,0,0,1,368,857.84Z" transform="translate(-298.44 -807.84)"/><path class="cls-2" d="M370.08,859.5c.54,0,1.05,0,1.59,0a.05.05,0,1,1,0,.1c-.54,0-1.05,0-1.59,0C370,859.54,370,859.47,370.08,859.5Z" transform="translate(-298.44 -807.84)"/><path class="cls-2" d="M393,856.11c-1.23-1.67-3.79-1.77-5.64-1.48-.29,0-.18.5.15.46,1.77-.29,4.91-.07,5.42,2.1.25,1.12-.94,2.09-1.7,2.64a14.46,14.46,0,0,1-2.89,1.51,33.73,33.73,0,0,1-10.59,2.24,47.94,47.94,0,0,1-9.43-.36c-.93-.14-1.91-.32-2.89-.54h0a15.13,15.13,0,0,1-5.6-2.42,6.52,6.52,0,0,1-1.95-2.42c2-1.88,4.62-2.24,7.22-2.71a12.34,12.34,0,0,0,1.48,3.29c.62.94,1.81,2.31,3,2.31a.14.14,0,0,0,.11-.25c-.47-.44-1.09-.65-1.59-1.09a7.25,7.25,0,0,1-1.38-1.69A12.69,12.69,0,0,1,365.6,855c.11-.11,0-.36-.15-.44-.1-.39-.21-.79-.32-1.19a39.57,39.57,0,0,0-1.55-5.45c2,2.09,5.27,2.24,8,2.27a24.66,24.66,0,0,0,9.86-1.48,6.57,6.57,0,0,0,2.42-1.84c0,.18-.07.36-.1.5-.4,1.77-.62,3.58-.87,5.39a26.72,26.72,0,0,1-.69,3.36s0,0-.07,0c-.25,0-.22.33-.07.47a12.51,12.51,0,0,1-.54,1.34,5.78,5.78,0,0,1-1.38,1.84,2.71,2.71,0,0,1-.87.58.15.15,0,0,0-.1-.07c-.51-.15-1.16.18-1.66.28a16.24,16.24,0,0,1-2.39.29,9.49,9.49,0,0,1-4.37-.46c-.25-.08-.43.21-.22.36a8.21,8.21,0,0,0,4.34.86,16.37,16.37,0,0,0,2.6-.21c.22,0,.51,0,.76-.11,1.37,0,2.63-1.3,3.32-2.39a9,9,0,0,0,1.05-2.34,20,20,0,0,0,6.07-2.9c1.73-1.22,3.14-2.88,3.07-5.12a3,3,0,0,0-3-2.79,5.26,5.26,0,0,0-4.66,2.64.15.15,0,0,0,.25.15,5,5,0,0,1,4.26-2.32,2.52,2.52,0,0,1,2.53,3.07c-.32,2.13-1.95,3.44-3.68,4.48a18.3,18.3,0,0,1-4.7,2.13,10.63,10.63,0,0,0,.32-1.44.22.22,0,0,0,.26,0c2-1.34,6.9-2.46,6.43-5.64-.18-1.12-1.45-1.23-2.35-1.08a4.83,4.83,0,0,0-3.29,2.31c-.07.11.11.22.18.11a4.74,4.74,0,0,1,2.93-2c1.23-.28,2.31.18,2,1.59-.26,1.23-1.81,2-2.82,2.57s-2.24,1-3.29,1.66v-.07c.43-2.46.4-5.28,1.12-7.77a4.08,4.08,0,0,0,.62-1.63c.14-.25.28-.5.43-.75a0,0,0,0,0,0,0,3.33,3.33,0,0,0-.36.4c.07-3.07-4.88-3.72-7.08-3.87a26.63,26.63,0,0,0-4.19,0,4.93,4.93,0,0,0,1.23-2.2c.07-.29-.15-.47-.44-.44-1.19.19-2.38.55-3.57.8l.72-.29c1.12-.47,2.2-.9,3.29-1.41s3.76-1.66,3.25-3.4-3.58-.79-4.66-.61c-1.27.22-2.57.47-3.87.61a6.68,6.68,0,0,1-2.56,0c1.95-2.34,5-3.46,7.76-4.51s5.79-2.06,8.13-4a.34.34,0,0,0-.07-.54c-5.27-3.11-11.05,1-16.44,1.59,0,0,0,.07,0,.07,5.17-.07,10.7-4,15.65-1.3-4.92,3.54-12.21,3.54-15.94,8.63a.43.43,0,0,0,.15.55c1.63.83,3.86.25,5.56,0,1.16-.18,2.28-.4,3.4-.54.58-.08,1.66-.29,2.17.14,1.08.94-3,2.78-3.51,3-1.62.76-3.65,1.26-5.05,2.38-.26.18,0,.62.25.62a32.52,32.52,0,0,0,5-1,6.91,6.91,0,0,1-1.34,1.92,18.75,18.75,0,0,0-6.43,1.77.16.16,0,0,0-.14-.07,4.28,4.28,0,0,0-3.58,2.52,2.84,2.84,0,0,0,0,1.63,2.73,2.73,0,0,0-.28-.33,0,0,0,0,0,0,0c1.62,2.42,1.81,5.64,2.56,8.38,0,.11.08.26.11.37-2.63.46-5.24.93-7.19,2.92a1.74,1.74,0,0,0-.11-.18c0-.07-.18-.07-.18,0a1.11,1.11,0,0,0,0,.36l-.07.07a.13.13,0,0,0,.11.22,5.21,5.21,0,0,0,1.66,2.42,16.47,16.47,0,0,0,7.37,4.51,2,2,0,0,0,.94.4s.07,0,.11-.07a28,28,0,0,0,5.41.94c.08,0,.11.11.19.14s.18,0,.14-.11c.4,0,.8.08,1.19.08a27.54,27.54,0,0,0,7-.58v.07c0,.07.15.14.18,0s0-.11,0-.15c.86-.21,1.73-.43,2.56-.72,2.68-.9,5.89-2.46,7.48-4.88a.12.12,0,0,0,0-.11C393.06,859,394.1,857.52,393,856.11ZM367.48,849s0,0,.07,0a15.61,15.61,0,0,0,2.53-2.06,14.94,14.94,0,0,0-.87,2,.3.3,0,0,0,.18.39C368.78,849.24,368.13,849.13,367.48,849Zm10.19-3.5.9.22a.77.77,0,0,1,.29.07.26.26,0,0,0-.15.07,8.39,8.39,0,0,1-2.89,2,10.45,10.45,0,0,1,1.81-2.1A.16.16,0,0,0,377.67,845.52Zm1.55.36a6.29,6.29,0,0,1,.79.29,5.22,5.22,0,0,1-1.4,1.41,11.15,11.15,0,0,1,.64-1.3A.28.28,0,0,0,379.22,845.88Zm-6.39,2.57c.61-1.16,1.4-2.17,1.94-3.36a16.08,16.08,0,0,1,2.39.29C375.71,846.39,374.45,847.72,372.83,848.45Zm-4.88-.51a8.56,8.56,0,0,1,1.51-2.27c.44-.15.91-.26,1.38-.37A37.63,37.63,0,0,1,368,847.94Zm4.12-2.82c.57,0,1.12-.07,1.66-.07-1.16,1-2.24,2.17-3.51,3.07A17,17,0,0,1,372.07,845.12Zm5.27,3.94a30.64,30.64,0,0,1-7.73.36s0,0,.07,0a21.5,21.5,0,0,0,3.58-2.93,15.8,15.8,0,0,0-1.41,2.46.32.32,0,0,0,.36.47,8.45,8.45,0,0,0,2.93-1.59,6.58,6.58,0,0,1-.4.57c-.18.26.11.51.36.47a6.68,6.68,0,0,0,2.82-1.33c-.11.29-.22.61-.33.94s.26.54.47.36a11.67,11.67,0,0,0,2.24-1.92,0,0,0,0,1,0,0c.18.32.4.4.61.65s.44-.07.26-.25a1.31,1.31,0,0,1-.29-.65,6.74,6.74,0,0,0,1.12.61h.11A13.13,13.13,0,0,1,377.34,849.06Zm-12.5-5.85a1.73,1.73,0,0,0,0,2.13s0,0,0,0c-1.84-3,4.84-4,6.47-4.23l.79-.11a5.19,5.19,0,0,0-.61.83c-.07.15.11.29.21.19.4-.36.84-.73,1.23-1.09a28.88,28.88,0,0,1,4.74,0,12.65,12.65,0,0,1,5.16,1.26,2.14,2.14,0,0,1,1,3,5.27,5.27,0,0,1-1.41,1.77.28.28,0,0,0,0-.29c-.54-1-2.42-1.44-3.43-1.73a18.94,18.94,0,0,0-5.13-.69c-2.79,0-6.4.69-7.63,3.58-.07.22.18.36.29.18a4.61,4.61,0,0,1,2.06-2,6.34,6.34,0,0,0-1.44,2.6.29.29,0,0,0,.1.29,6,6,0,0,1-3.72-2.35C362.64,845.19,363.65,844,364.84,843.21ZM361.37,862c.29.11.58.26.83.37a26.23,26.23,0,0,0,3.11,1,3.75,3.75,0,0,0,.32.76A21,21,0,0,1,361.37,862Zm4.81,2.39,0,0a2.24,2.24,0,0,1-.54-.86c.69.14,1.34.28,2,.39a3,3,0,0,0,1,1.2C367.8,864.85,367,864.63,366.18,864.38Zm3.47.9s0-.07-.08-.11a3.69,3.69,0,0,1-1.73-1.3c.72.11,1.41.22,2.13.29,0,0,0,.08,0,.11a10.23,10.23,0,0,0,.47,1,.34.34,0,0,0,.07.15A8.13,8.13,0,0,1,369.65,865.28Zm1.3.26h0a1.81,1.81,0,0,1-.33-.44c-.18-.29-.32-.61-.47-.9l1.34.11c.36,0,.76,0,1.12.07a4.09,4.09,0,0,0,.07,1.34C372.14,865.68,371.56,865.61,371,865.54Zm3.54.29c-.51,0-1,0-1.49-.08a1.48,1.48,0,0,1-.14-.32,4.74,4.74,0,0,1-.11-1c.83,0,1.66,0,2.5,0a5,5,0,0,1,.21.72,1.16,1.16,0,0,0,.25.69C375.32,865.86,374.92,865.86,374.49,865.83Zm7-.58c-1,.21-2,.36-3,.47a1.74,1.74,0,0,1,.54-1.48,0,0,0,0,0,0,0,2,2,0,0,0-.65,1.52c-.79.07-1.59.11-2.38.11v0a6.61,6.61,0,0,0-.26-.83,2.28,2.28,0,0,0-.18-.54c1.45,0,2.93-.15,4.38-.33l2.09-.33A4.11,4.11,0,0,0,381.5,865.25Zm6.57-2.64a18.64,18.64,0,0,1-4.12,1.91,19.27,19.27,0,0,1-2.13.62,1.36,1.36,0,0,1,0-.4,5.62,5.62,0,0,1,.32-1,32,32,0,0,0,4.77-1.19c-.07.11-.11.21-.18.32s.11.22.15.11a4.85,4.85,0,0,1,.25-.51,19.51,19.51,0,0,0,2.67-1.15A11.09,11.09,0,0,1,388.07,862.61Z" transform="translate(-298.44 -807.84)"/><path class="cls-2" d="M385.83,863.22a2.61,2.61,0,0,0-1.26,1,.08.08,0,0,1-.15-.07,2.84,2.84,0,0,1,1.37-1.05S385.9,863.19,385.83,863.22Z" transform="translate(-298.44 -807.84)"/><path class="cls-2" d="M365.27,860.58s0-.1.08-.07c1.08.91,2.74,1,4.08,1.27a38.1,38.1,0,0,0,5,.5,17.69,17.69,0,0,0,5.38-.54c1.12-.29,2.24-.65,3.33-1a8.77,8.77,0,0,1,2.63-.79c.11,0,.22.18.11.25a10.83,10.83,0,0,1-2.85,1.23,33.67,33.67,0,0,1-3.61,1.16,16.9,16.9,0,0,1-5.35.36,31.45,31.45,0,0,1-5.2-.73A7.88,7.88,0,0,1,365.27,860.58Z" transform="translate(-298.44 -807.84)"/><path class="cls-2" d="M382.61,857.41c-.07,0,0-.11,0-.11,1,.22,2.24,1.05,2.21,2.17a.12.12,0,0,1-.22.07,11.22,11.22,0,0,0-.72-1.23A3,3,0,0,0,382.61,857.41Z" transform="translate(-298.44 -807.84)"/><path class="cls-2" d="M365.85,858a4.37,4.37,0,0,0-1.19.11,9.19,9.19,0,0,1-.9.43.08.08,0,0,1-.11-.11c.29-.72,1.62-.61,2.2-.57C365.92,857.88,365.92,858,365.85,858Z" transform="translate(-298.44 -807.84)"/></svg>